<svg width="1138" height="1138" viewBox="0 0 1138 1138" fill="none" xmlns="http://www.w3.org/2000/svg">
<g clip-path="url(#clip0_68_47)">
<path fill-rule="evenodd" clip-rule="evenodd" d="M654.404 75C582.66 33.5786 490.921 58.1599 449.5 129.904L355 293.583C313.579 365.326 338.16 457.065 409.904 498.486L763.719 702.762C835.463 744.183 927.202 719.602 968.623 647.858L1063.12 484.179C1104.54 412.435 1079.96 320.697 1008.22 279.275L654.404 75ZM654.169 183.406L711.905 216.74L561.904 476.549L504.168 443.216L654.169 183.406ZM859.811 427.227C829.895 479.042 763.639 496.796 711.823 466.88C660.008 436.964 642.255 370.708 672.17 318.893C702.086 267.077 768.342 249.324 820.158 279.24C871.973 309.155 889.726 375.412 859.811 427.227Z" fill="#F1465A"/>
<path fill-rule="evenodd" clip-rule="evenodd" d="M144.889 626.564C64.869 648.005 17.3816 730.255 38.8229 810.275L87.7397 992.835C109.181 1072.86 191.432 1120.34 271.451 1098.9L666.081 993.161C746.101 971.719 793.589 889.469 772.147 809.449L723.231 626.889C701.789 546.869 619.539 499.382 539.519 520.823L144.889 626.564ZM613.424 754.145L224.962 675.954L316.101 1016.09L613.424 754.145Z" fill="#FF0000"/>
</g>
<defs>
<clipPath id="clip0_68_47">
<rect width="1138" height="1138" fill="white"/>
</clipPath>
</defs>
</svg>
